<svg width="1874" height="1357" viewBox="0 0 1874 1357" fill="none" xmlns="http://www.w3.org/2000/svg">
<path fill-rule="evenodd" clip-rule="evenodd" d="M1216.17 1078.71C1164.79 1078.71 1117.69 1105.04 1083.88 1143.73C969.467 1274.64 807.342 1356.34 627.559 1356.34C280.968 1356.34 0 1052.71 0 678.168C0 303.626 280.968 0 627.559 0C791.386 0 940.551 67.8387 1052.31 178.939C1085.66 212.091 1129.36 234.25 1176.38 234.25H1257.8C1301.98 234.25 1342.89 213.625 1379 188.171C1430.7 151.73 1494.94 130.139 1564.56 130.139C1732.87 130.139 1869.79 256.35 1873.9 413.506C1873.91 413.532 1873.93 413.552 1873.95 413.552V413.552C1873.98 413.552 1874 413.574 1874 413.6L1874 420.782V900.85L1874 943.697C1874 944.79 1873.11 945.676 1872.02 945.676V945.676C1871.05 945.676 1870.23 946.382 1870.06 947.337C1846.37 1085.76 1718.61 1191.49 1564.56 1191.49C1492.08 1191.49 1425.42 1168.09 1372.68 1128.88C1335.54 1101.28 1293 1078.71 1246.73 1078.71H1216.17Z" fill="#9F7039"/>
<path fill-rule="evenodd" clip-rule="evenodd" d="M1209.93 1055.91C1159.31 1055.91 1112.83 1081.53 1078.83 1119.04C967.327 1242.05 809.801 1318.74 635.199 1318.74C297.166 1318.74 23.136 1031.3 23.136 676.722C23.136 322.145 297.166 34.7037 635.199 34.7037C794.412 34.7037 939.426 98.4692 1048.3 202.981C1081.65 234.997 1124.69 256.467 1170.93 256.467H1249.54C1292.92 256.467 1333.19 236.514 1369.09 212.161C1419.34 178.076 1481.62 157.906 1549.06 157.906C1713.22 157.906 1846.76 277.388 1850.77 426.166C1850.77 426.191 1850.79 426.212 1850.82 426.212V426.212C1850.84 426.212 1850.86 426.233 1850.86 426.259V928.036C1850.86 929.105 1850 929.971 1848.93 929.971V929.971C1847.99 929.971 1847.18 930.655 1847.02 931.584C1823.89 1062.61 1699.3 1162.69 1549.06 1162.69C1478.89 1162.69 1414.32 1140.85 1363.06 1104.23C1326.06 1077.79 1284.14 1055.91 1238.66 1055.91H1209.93Z" fill="#C08137"/>
<path d="M504.65 491.636L436.688 413.552C646.356 455.486 611.653 588.517 611.653 685.398C617.437 869.328 497.42 921.094 436.688 923.986L504.65 837.227C447.967 757.408 481.032 573.575 504.65 491.636Z" fill="black" stroke="black"/>
<rect x="543.691" y="527.384" width="14.9759" height="283.333" transform="rotate(-4 543.691 527.384)" fill="#E0CACA"/>
<circle cx="511.88" cy="555.259" r="11.5679" fill="#C4C4C4"/>
<circle cx="503.203" cy="601.531" r="11.5679" fill="#C4C4C4"/>
<circle cx="494.527" cy="694.074" r="11.5679" fill="#C4C4C4"/>
<circle cx="497.419" cy="740.346" r="11.5679" fill="#C4C4C4"/>
<circle cx="506.096" cy="786.617" r="11.5679" fill="#C4C4C4"/>
<circle cx="497.419" cy="647.802" r="11.5679" fill="#C4C4C4"/>
<circle cx="1198.72" cy="666.6" r="261.724" fill="#9F7039"/>
<circle cx="1198.72" cy="666.6" r="250.156" fill="black"/>
</svg>
