<svg width="726" height="525" viewBox="0 0 726 525" fill="none" xmlns="http://www.w3.org/2000/svg">
<path fill-rule="evenodd" clip-rule="evenodd" d="M477.007 417.537C453.202 417.537 431.461 429.832 415.363 447.368C371.352 495.31 310.34 525 242.91 525C108.755 525 0 407.475 0 262.5C0 117.525 108.755 0 242.91 0C300.664 0 353.71 21.7806 395.398 58.1553C416.876 76.8951 443.139 90.6716 471.643 90.6716V90.6716C498.425 90.6716 523.076 77.4377 546.729 64.8759C564.114 55.6428 584.2 50.3731 605.597 50.3731C670.745 50.3731 723.745 99.2261 725.336 160.057C725.337 160.067 725.345 160.075 725.355 160.075V160.075C725.365 160.075 725.373 160.083 725.373 160.093V162.758L725.373 162.873L725.373 162.988V348.579L725.373 348.694L725.373 348.809V365.279C725.373 365.702 725.03 366.045 724.607 366.045V366.045C724.232 366.045 723.913 366.318 723.849 366.687C714.68 420.266 665.227 461.194 605.597 461.194C579.585 461.194 555.509 453.406 535.869 440.176C518.09 428.2 498.443 417.537 477.007 417.537V417.537Z" fill="#9F7039"/>
<path fill-rule="evenodd" clip-rule="evenodd" d="M474.223 408.713C450.937 408.713 429.627 420.593 413.578 437.465C370.69 482.551 311.385 510.448 245.868 510.448C115.025 510.448 8.9552 399.187 8.9552 261.94C8.9552 124.693 115.025 13.4328 245.868 13.4328C301.951 13.4328 353.483 33.8742 394.062 68.0415C415.378 85.99 441.111 99.2712 468.978 99.2712V99.2712C495.127 99.2712 519.282 86.5524 542.567 74.6539C559.435 66.0349 578.888 61.1208 599.599 61.1208C663.138 61.1208 714.829 107.369 716.382 164.957C716.382 164.967 716.39 164.975 716.4 164.975V164.975C716.41 164.975 716.418 164.983 716.418 164.993V359.217C716.418 359.63 716.083 359.966 715.669 359.966V359.966C715.304 359.966 714.992 360.231 714.929 360.59C705.978 411.305 657.751 450.043 599.599 450.043C574.375 450.043 551.017 442.754 531.923 430.36C514.375 418.971 495.143 408.713 474.223 408.713V408.713Z" fill="#C08137"/>
<path d="M195.336 190.298L169.03 160.075C250.187 176.306 236.754 227.799 236.754 265.299C238.992 336.493 192.537 356.53 169.03 357.649L195.336 324.067C173.395 293.172 186.194 222.015 195.336 190.298Z" fill="black" stroke="black"/>
<rect x="210.448" y="204.136" width="5.79675" height="109.67" transform="rotate(-4 210.448 204.136)" fill="#E0CACA"/>
<circle cx="198.134" cy="214.925" r="4.47761" fill="#C4C4C4"/>
<circle cx="194.776" cy="232.836" r="4.47761" fill="#C4C4C4"/>
<circle cx="191.418" cy="268.657" r="4.47761" fill="#C4C4C4"/>
<circle cx="192.537" cy="286.567" r="4.47761" fill="#C4C4C4"/>
<circle cx="195.895" cy="304.478" r="4.47761" fill="#C4C4C4"/>
<circle cx="192.537" cy="250.746" r="4.47761" fill="#C4C4C4"/>
<circle cx="463.992" cy="258.022" r="101.306" fill="#9F7039"/>
<circle cx="463.993" cy="258.022" r="96.8284" fill="black"/>
</svg>
