<svg width="591" height="729" viewBox="0 0 591 729" fill="none" xmlns="http://www.w3.org/2000/svg">
<path fill-rule="evenodd" clip-rule="evenodd" d="M477 172.721C481.096 172.245 485.268 172 489.5 172C545.557 172 591 214.981 591 268V448H590.215C590.733 451.931 591 455.936 591 460C591 513.019 545.557 556 489.5 556C442.587 556 403.107 525.897 391.476 485H367.999C334.025 557.299 270.171 606 197 606C88.2 606 0.000126779 498.324 0.000126779 365.5C0.000126779 232.675 88.2 125 197 125C232.676 125 266.137 136.577 295 156.823L295 101C295 156.781 335.742 202 386 202C436.258 202 477 156.781 477 101L477 172.721ZM477 101C477 45.2192 436.258 -1.52588e-05 386 -1.52588e-05C335.742 -1.52588e-05 295 45.2192 295 101L477 101Z" fill="#C4C4C4"/>
<path fill-rule="evenodd" clip-rule="evenodd" d="M477 628C477 572.219 436.258 527 386 527C335.742 527 295 572.219 295 628L295 250L477 250L477 628ZM476.842 634C476.947 632.015 477 630.014 477 628V634H476.842ZM476.842 634C474.045 686.988 434.443 729 386 729C337.557 729 297.955 686.988 295.158 634H476.842ZM295.158 634H295V628C295 630.014 295.053 632.015 295.158 634Z" fill="#C4C4C4"/>
</svg>
