<svg width="1874" height="1357" viewBox="0 0 1874 1357" fill="none" xmlns="http://www.w3.org/2000/svg">
<path d="M1216.17 1078.71C1164.79 1078.71 1117.69 1105.04 1083.88 1143.73C969.467 1274.64 807.342 1356.34 627.559 1356.34C280.968 1356.34 0 1052.71 0 678.168C0 303.626 280.968 0 627.559 0C791.386 0 940.551 67.8387 1052.31 178.939C1085.66 212.091 1129.36 234.25 1176.38 234.25H1257.8C1301.98 234.25 1342.89 213.625 1379 188.171C1430.7 151.73 1494.94 130.139 1564.56 130.139C1732.87 130.139 1869.79 256.35 1873.9 413.506C1873.91 413.532 1873.93 413.552 1873.95 413.552C1873.98 413.552 1874 413.574 1874 413.6V943.697C1874 944.79 1873.11 945.676 1872.02 945.676C1871.05 945.676 1870.23 946.382 1870.06 947.337C1846.37 1085.76 1718.61 1191.49 1564.56 1191.49C1492.08 1191.49 1425.42 1168.09 1372.68 1128.88C1335.54 1101.28 1293 1078.71 1246.73 1078.71H1216.17Z" fill="#9F7039"/>
<path d="M1209.93 1055.91C1159.31 1055.91 1112.83 1081.53 1078.83 1119.04C967.328 1242.05 809.801 1318.74 635.2 1318.74C297.166 1318.74 23.1361 1031.3 23.1361 676.722C23.1361 322.145 297.166 34.7037 635.2 34.7037C794.412 34.7037 939.426 98.4692 1048.3 202.981C1081.65 234.997 1124.69 256.467 1170.93 256.467H1249.54C1292.92 256.467 1333.19 236.514 1369.09 212.161C1419.34 178.076 1481.62 157.906 1549.06 157.906C1713.22 157.906 1846.76 277.388 1850.77 426.166C1850.77 426.191 1850.79 426.212 1850.82 426.212C1850.84 426.212 1850.86 426.233 1850.86 426.259V928.036C1850.86 929.105 1850 929.971 1848.93 929.971C1847.99 929.971 1847.18 930.655 1847.02 931.584C1823.89 1062.61 1699.3 1162.69 1549.06 1162.69C1478.89 1162.69 1414.32 1140.85 1363.06 1104.23C1326.06 1077.79 1284.14 1055.91 1238.66 1055.91H1209.93Z" fill="#C08137"/>
<path d="M504.65 491.636L436.688 413.552C646.356 455.486 611.653 588.517 611.653 685.398C617.437 869.328 497.42 921.094 436.688 923.986L504.65 837.227C447.967 757.408 481.032 573.575 504.65 491.636Z" fill="black" stroke="black"/>
<path d="M543.691 527.384L558.631 526.34L578.395 808.982L563.456 810.027L543.691 527.384Z" fill="#E0CACA"/>
<path d="M523.448 555.259C523.448 561.648 518.269 566.827 511.88 566.827C505.491 566.827 500.312 561.648 500.312 555.259C500.312 548.871 505.491 543.691 511.88 543.691C518.269 543.691 523.448 548.871 523.448 555.259Z" fill="#C4C4C4"/>
<path d="M514.771 601.531C514.771 607.92 509.592 613.099 503.203 613.099C496.815 613.099 491.635 607.92 491.635 601.531C491.635 595.142 496.815 589.963 503.203 589.963C509.592 589.963 514.771 595.142 514.771 601.531Z" fill="#C4C4C4"/>
<path d="M506.095 694.074C506.095 700.463 500.916 705.642 494.527 705.642C488.139 705.642 482.96 700.463 482.96 694.074C482.96 687.685 488.139 682.506 494.527 682.506C500.916 682.506 506.095 687.685 506.095 694.074Z" fill="#C4C4C4"/>
<path d="M508.987 740.346C508.987 746.735 503.808 751.914 497.42 751.914C491.031 751.914 485.852 746.735 485.852 740.346C485.852 733.957 491.031 728.778 497.42 728.778C503.808 728.778 508.987 733.957 508.987 740.346Z" fill="#C4C4C4"/>
<path d="M517.664 786.617C517.664 793.006 512.485 798.185 506.096 798.185C499.707 798.185 494.528 793.006 494.528 786.617C494.528 780.229 499.707 775.049 506.096 775.049C512.485 775.049 517.664 780.229 517.664 786.617Z" fill="#C4C4C4"/>
<path d="M508.987 647.803C508.987 654.191 503.808 659.37 497.42 659.37C491.031 659.37 485.852 654.191 485.852 647.803C485.852 641.414 491.031 636.235 497.42 636.235C503.808 636.235 508.987 641.414 508.987 647.803Z" fill="#C4C4C4"/>
<path d="M1460.45 666.6C1460.45 811.146 1343.27 928.324 1198.72 928.324C1054.18 928.324 937 811.146 937 666.6C937 522.054 1054.18 404.877 1198.72 404.877C1343.27 404.877 1460.45 522.054 1460.45 666.6Z" fill="#9F7039"/>
<path d="M1448.88 666.6C1448.88 804.758 1336.88 916.756 1198.72 916.756C1060.57 916.756 948.568 804.758 948.568 666.6C948.568 528.443 1060.57 416.444 1198.72 416.444C1336.88 416.444 1448.88 528.443 1448.88 666.6Z" fill="black"/>
</svg>
