<svg width="639" height="514" viewBox="0 0 639 514" fill="none" xmlns="http://www.w3.org/2000/svg">
<path fill-rule="evenodd" clip-rule="evenodd" d="M362.948 452.508C390.153 425.546 455.842 428.383 490.353 444.997C500.504 449.883 511.223 452.5 522.304 452.5C586.477 452.5 638.5 364.748 638.5 256.5C638.5 148.252 586.477 60.5 522.304 60.5C511.063 60.5 500.195 63.1926 489.914 68.2162C455.496 85.034 389.814 87.9865 362.539 61.0873C324.214 23.2894 274.649 0.5 220.519 0.5C99.0057 0.5 0.5 115.339 0.5 257C0.5 398.661 99.0057 513.5 220.519 513.5C274.842 513.5 324.567 490.548 362.948 452.508Z" fill="#CC9139"/>
<ellipse cx="417.5" cy="257" rx="96.5" ry="91" transform="rotate(90 417.5 257)" fill="black"/>
<path d="M181.5 256.5L192.21 382.039L209.54 334.088L209.54 178.912L192.21 130.961L181.5 256.5Z" fill="#582F0A"/>
<rect x="203.5" y="191.5" width="130" height="7" transform="rotate(90 203.5 191.5)" fill="#D9DABB"/>
</svg>
